<svg xmlns="http://www.w3.org/2000/svg" viewBox="0 0 87.83 74.73"><defs><style>.cls-1{fill:#613a16;}</style></defs><title>Asset 1</title><g id="Layer_2" data-name="Layer 2"><g id="Layer_1-2" data-name="Layer 1"><path class="cls-1" d="M31.89,41.24c-1.49,1.69-4,5.45-5.57,7C23.78,50.82,17.8,54.9,15,57.2c-7.34,6.11-1.85,17.53,8.12,17.53,0,0,19.87-2.44,26.61-2.44s26.6,2.44,26.6,2.44c10,0,15.38-11.33,8.12-17.53-2.69-2.29-8.42-6.46-10.93-8.94-1.64-1.61-4.37-5.32-5.91-7-9.09-9.93-26.88-10.1-35.76,0"/><path class="cls-1" d="M41.33,14.18c.49,8.13-3.2,15-8.24,15.25s-9.53-6.05-10-14.17S26.27.31,31.32,0s9.52,6.05,10,14.17"/><path class="cls-1" d="M18.37,30.48c1.29,8-1.71,15.19-6.7,16S1.59,41.35.3,33.31,2,18.13,7,17.35s10.08,5.09,11.37,13.13"/></g></g></svg>